<svg width="1152" height="751" viewBox="0 0 1152 751" fill="none" xmlns="http://www.w3.org/2000/svg">
<rect width="1152" height="708" fill="url(#paint0_linear_21_54)"/>
<path opacity="0.92" d="M704.441 392.966C704.441 394.191 703.453 395.18 702.227 395.18C701.002 395.18 700.013 394.191 700.013 392.966C700.013 391.74 701.002 390.752 702.227 390.752C703.453 390.752 704.441 391.74 704.441 392.966Z" fill="white"/>
<path opacity="0.92" d="M357.972 49.8181C357.972 51.0441 356.976 52.032 355.759 52.032C354.541 52.032 353.545 51.0353 353.545 49.8181C353.545 48.5921 354.541 47.6042 355.759 47.6042C356.976 47.6042 357.972 48.6009 357.972 49.8181Z" fill="white"/>
<path opacity="0.47" d="M1002.2 282.826C1002.2 283.739 1001.21 284.487 999.991 284.487C998.774 284.487 997.777 283.739 997.777 282.826C997.777 281.914 998.774 281.166 999.991 281.166C1001.22 281.166 1002.2 281.903 1002.2 282.826Z" fill="white"/>
<path opacity="0.47" d="M953.499 157.19C953.499 158.407 953.25 159.404 952.946 159.404C952.641 159.404 952.392 158.407 952.392 157.19C952.392 155.973 952.641 154.976 952.946 154.976C953.253 154.976 953.499 155.973 953.499 157.19Z" fill="white"/>
<path opacity="0.47" d="M1071.94 110.146C1071.94 111.674 1071.2 112.913 1070.28 112.913C1069.36 112.913 1068.62 111.674 1068.62 110.146C1068.62 108.618 1069.36 107.378 1070.28 107.378C1071.2 107.378 1071.94 108.618 1071.94 110.146Z" fill="white"/>
<path opacity="0.47" d="M1034.31 194.272C1034.31 195.185 1033.31 195.933 1032.09 195.933C1030.88 195.933 1029.88 195.185 1029.88 194.272C1029.88 193.36 1030.88 192.612 1032.09 192.612C1033.31 192.612 1034.31 193.36 1034.31 194.272Z" fill="white"/>
<path opacity="0.47" d="M612.564 251.279C612.564 251.893 612.071 252.386 611.458 252.386C610.844 252.386 610.351 251.893 610.351 251.279C610.351 250.665 610.844 250.172 611.458 250.172C612.071 250.172 612.564 250.665 612.564 251.279Z" fill="white"/>
<path opacity="0.47" d="M499.658 195.933C499.658 196.541 498.661 197.04 497.445 197.04C496.228 197.04 495.231 196.541 495.231 195.933C495.231 195.324 496.228 194.826 497.445 194.826C498.661 194.826 499.658 195.324 499.658 195.933Z" fill="white"/>
<path opacity="0.47" d="M755.359 169.92C755.359 171.448 754.616 172.687 753.699 172.687C752.782 172.687 752.039 171.448 752.039 169.92C752.039 168.392 752.782 167.153 753.699 167.153C754.616 167.139 755.359 168.378 755.359 169.92Z" fill="white"/>
<path opacity="0.92" d="M397.822 254.599C397.822 256.438 396.327 257.92 394.501 257.92C392.675 257.92 391.18 256.425 391.18 254.599C391.18 252.76 392.675 251.279 394.501 251.279C396.327 251.279 397.822 252.774 397.822 254.599Z" fill="white"/>
<path opacity="0.47" d="M1067.51 232.461C1067.51 233.075 1066.77 233.568 1065.85 233.568C1064.93 233.568 1064.19 233.075 1064.19 232.461C1064.19 231.847 1064.93 231.354 1065.85 231.354C1066.77 231.365 1067.51 231.858 1067.51 232.461Z" fill="url(#paint1_linear_21_54)"/>
<path opacity="0.92" d="M1039.84 95.7556C1039.84 96.6725 1038.85 97.416 1037.62 97.416C1036.4 97.416 1035.41 96.6725 1035.41 95.7556C1035.41 94.8387 1036.4 94.0952 1037.62 94.0952C1038.85 94.0952 1039.84 94.8387 1039.84 95.7556Z" fill="white"/>
<path opacity="0.92" d="M971.763 369.72C973.292 369.72 974.531 368.233 974.531 366.399C974.531 364.565 973.292 363.078 971.763 363.078C970.235 363.078 968.996 364.565 968.996 366.399C968.996 368.233 970.235 369.72 971.763 369.72Z" fill="white"/>
<path opacity="0.47" d="M701.12 306.072C701.12 306.993 700.38 307.732 699.459 307.732C698.539 307.732 697.799 306.993 697.799 306.072C697.799 305.151 698.539 304.412 699.459 304.412C700.38 304.412 701.12 305.151 701.12 306.072Z" fill="white"/>
<path opacity="0.47" d="M572.715 211.429C572.715 212.652 571.476 213.643 569.947 213.643C568.419 213.643 567.18 212.652 567.18 211.429C567.18 210.207 568.419 209.216 569.947 209.216C571.476 209.216 572.715 210.196 572.715 211.429Z" fill="white"/>
<path opacity="0.92" d="M552.791 104.058C552.791 105.283 551.803 106.271 550.577 106.271C549.352 106.271 548.363 105.283 548.363 104.058C548.363 102.832 549.352 101.844 550.577 101.844C551.803 101.844 552.791 102.832 552.791 104.058Z" fill="white"/>
<path opacity="0.47" d="M1110.68 73.0632C1110.68 73.6745 1110.19 74.1702 1109.58 74.1702C1108.97 74.1702 1108.47 73.6745 1108.47 73.0632C1108.47 72.4519 1108.97 71.9563 1109.58 71.9563C1110.19 71.9563 1110.68 72.4519 1110.68 73.0632Z" fill="white"/>
<path opacity="0.47" d="M1120.65 122.875C1120.65 123.487 1120.4 123.982 1120.09 123.982C1119.79 123.982 1119.54 123.487 1119.54 122.875C1119.54 122.264 1119.79 121.768 1120.09 121.768C1120.4 121.768 1120.65 122.264 1120.65 122.875Z" fill="white"/>
<path opacity="0.47" d="M734.328 205.341C734.328 205.647 733.833 205.895 733.221 205.895C732.61 205.895 732.115 205.647 732.115 205.341C732.115 205.035 732.61 204.788 733.221 204.788C733.833 204.788 734.328 205.035 734.328 205.341Z" fill="white"/>
<path opacity="0.47" d="M1111.79 281.166C1111.79 281.779 1110.8 282.273 1109.58 282.273C1108.35 282.273 1107.36 281.779 1107.36 281.166C1107.36 280.553 1108.35 280.059 1109.58 280.059C1110.8 280.059 1111.79 280.553 1111.79 281.166Z" fill="white"/>
<path opacity="0.47" d="M952.393 71.9565C952.393 72.5686 951.898 73.0635 951.286 73.0635C950.674 73.0635 950.179 72.5686 950.179 71.9565C950.179 71.3445 950.674 70.8496 951.286 70.8496C951.898 70.8496 952.393 71.3445 952.393 71.9565Z" fill="white"/>
<path opacity="0.47" d="M918.078 312.714C918.078 313.022 917.577 313.267 916.971 313.267C916.353 313.267 915.864 313.017 915.864 312.714C915.864 312.405 916.365 312.16 916.971 312.16C917.588 312.16 918.078 312.405 918.078 312.714Z" fill="white"/>
<path opacity="0.47" d="M836.164 63.1011C836.164 63.7148 835.671 64.208 835.057 64.208C834.443 64.208 833.95 63.7148 833.95 63.1011C833.95 62.4873 834.443 61.9941 835.057 61.9941C835.671 62.0051 836.164 62.4983 836.164 63.1011Z" fill="white"/>
<path opacity="0.47" d="M1096.29 173.24C1096.29 174.762 1095.06 176.008 1093.53 176.008C1092 176.008 1090.76 174.776 1090.76 173.24C1090.76 171.704 1091.99 170.473 1093.53 170.473C1095.05 170.473 1096.29 171.704 1096.29 173.24Z" fill="white"/>
<path opacity="0.47" d="M990.029 102.397C990.029 103.318 989.289 104.058 988.368 104.058C987.448 104.058 986.708 103.318 986.708 102.397C986.708 101.477 987.448 100.737 988.368 100.737C989.289 100.737 990.029 101.477 990.029 102.397Z" fill="white"/>
<path opacity="0.92" d="M489.696 306.072C489.696 307.6 488.705 308.839 487.482 308.839C486.26 308.839 485.269 307.6 485.269 306.072C485.269 304.544 486.26 303.304 487.482 303.304C488.705 303.304 489.696 304.544 489.696 306.072Z" fill="white"/>
<path opacity="0.71" d="M667.911 133.944C667.911 134.558 667.171 135.051 666.251 135.051C665.33 135.051 664.59 134.558 664.59 133.944C664.59 133.331 665.33 132.837 666.251 132.837C667.171 132.848 667.911 133.342 667.911 133.944Z" fill="white"/>
<path opacity="0.92" d="M1006.29 129.648L1006.87 131.148C1007.05 131.627 1007.49 132.005 1008.05 132.161L1009.8 132.658C1010 132.713 1010 132.962 1009.8 133.017L1008.05 133.514C1007.49 133.671 1007.05 134.048 1006.87 134.527L1006.29 136.027C1006.22 136.202 1005.93 136.202 1005.87 136.027L1005.29 134.527C1005.11 134.048 1004.67 133.671 1004.11 133.514L1002.36 133.017C1002.15 132.962 1002.15 132.713 1002.36 132.658L1004.11 132.161C1004.67 132.005 1005.11 131.627 1005.29 131.148L1005.87 129.648C1005.93 129.473 1006.22 129.473 1006.29 129.648Z" fill="white"/>
<path opacity="0.92" d="M444.551 129.648L445.213 131.148C445.422 131.627 445.925 132.005 446.563 132.161L448.564 132.658C448.797 132.713 448.797 132.962 448.564 133.017L446.563 133.514C445.925 133.671 445.422 134.048 445.213 134.527L444.551 136.027C444.477 136.202 444.146 136.202 444.072 136.027L443.409 134.527C443.201 134.048 442.697 133.671 442.059 133.514L440.058 133.017C439.825 132.962 439.825 132.713 440.058 132.658L442.059 132.161C442.697 132.005 443.201 131.627 443.409 131.148L444.072 129.648C444.146 129.473 444.477 129.473 444.551 129.648Z" fill="white"/>
<path opacity="0.92" d="M364.33 172.84L365.075 174.59C365.31 175.149 365.876 175.589 366.594 175.772L368.845 176.352C369.107 176.416 369.107 176.706 368.845 176.77L366.594 177.35C365.876 177.533 365.31 177.973 365.075 178.532L364.33 180.282C364.247 180.486 363.874 180.486 363.791 180.282L363.046 178.532C362.811 177.973 362.245 177.533 361.527 177.35L359.276 176.77C359.014 176.706 359.014 176.416 359.276 176.352L361.527 175.772C362.245 175.589 362.811 175.149 363.046 174.59L363.791 172.84C363.874 172.636 364.247 172.636 364.33 172.84Z" fill="white"/>
<path opacity="0.92" d="M977.108 203.907L978.095 206.405C978.417 207.21 979.162 207.83 980.129 208.099L983.13 208.92C983.472 209.021 983.472 209.423 983.13 209.524L980.129 210.345C979.162 210.613 978.417 211.234 978.095 212.038L977.108 214.536C976.987 214.821 976.483 214.821 976.383 214.536L975.396 212.038C975.073 211.234 974.328 210.613 973.361 210.345L970.36 209.524C970.018 209.423 970.018 209.021 970.36 208.92L973.361 208.099C974.328 207.83 975.073 207.21 975.396 206.405L976.383 203.907C976.503 203.605 976.987 203.605 977.108 203.907Z" fill="white"/>
<path opacity="0.92" d="M822.077 193.945L822.9 196.443C823.168 197.248 823.79 197.868 824.595 198.136L827.096 198.958C827.381 199.059 827.381 199.461 827.096 199.561L824.595 200.383C823.79 200.651 823.168 201.272 822.9 202.076L822.077 204.574C821.977 204.859 821.557 204.859 821.473 204.574L820.651 202.076C820.382 201.272 819.761 200.651 818.956 200.383L816.455 199.561C816.169 199.461 816.169 199.059 816.455 198.958L818.956 198.136C819.761 197.868 820.382 197.248 820.651 196.443L821.473 193.945C821.574 193.643 821.977 193.643 822.077 193.945Z" fill="white"/>
<path opacity="0.92" d="M692.566 233.84L693.388 236.837C693.657 237.803 694.278 238.547 695.084 238.869L697.585 239.855C697.87 239.976 697.87 240.459 697.585 240.579L695.084 241.565C694.278 241.887 693.657 242.631 693.388 243.597L692.566 246.595C692.465 246.937 692.046 246.937 691.962 246.595L691.139 243.597C690.871 242.631 690.25 241.887 689.444 241.565L686.943 240.579C686.658 240.459 686.658 239.976 686.943 239.855L689.444 238.869C690.25 238.547 690.871 237.803 691.139 236.837L691.962 233.84C692.063 233.478 692.465 233.478 692.566 233.84Z" fill="white"/>
<path opacity="0.47" d="M821.432 117.515L822.012 119.516C822.194 120.154 822.635 120.658 823.193 120.866L824.944 121.529C825.148 121.603 825.148 121.934 824.944 122.008L823.193 122.67C822.635 122.879 822.194 123.382 822.012 124.02L821.432 126.021C821.367 126.254 821.077 126.254 821.013 126.021L820.433 124.02C820.25 123.382 819.81 122.879 819.252 122.67L817.501 122.008C817.297 121.934 817.297 121.603 817.501 121.529L819.252 120.866C819.81 120.658 820.25 120.154 820.433 119.516L821.013 117.515C821.067 117.282 821.357 117.282 821.432 117.515Z" fill="white"/>
<path opacity="0.92" d="M1109.76 223.715L1110.26 224.962C1110.42 225.367 1110.8 225.67 1111.27 225.805L1112.76 226.221C1112.94 226.266 1112.94 226.48 1112.76 226.525L1111.27 226.94C1110.78 227.075 1110.42 227.39 1110.26 227.783L1109.76 229.031C1109.7 229.177 1109.45 229.177 1109.39 229.031L1108.89 227.783C1108.73 227.379 1108.36 227.075 1107.88 226.94L1106.39 226.525C1106.21 226.48 1106.21 226.266 1106.39 226.221L1107.88 225.805C1108.37 225.67 1108.73 225.356 1108.89 224.962L1109.39 223.715C1109.45 223.569 1109.69 223.569 1109.76 223.715Z" fill="white"/>
<path opacity="0.47" d="M922.686 210.451L923.179 211.951C923.34 212.435 923.713 212.807 924.196 212.969L925.697 213.462C925.868 213.522 925.868 213.764 925.697 213.825L924.196 214.318C923.713 214.479 923.34 214.852 923.179 215.335L922.686 216.836C922.625 217.007 922.384 217.007 922.323 216.836L921.83 215.335C921.669 214.852 921.296 214.479 920.813 214.318L919.312 213.825C919.141 213.764 919.141 213.522 919.312 213.462L920.813 212.969C921.296 212.807 921.669 212.435 921.83 211.951L922.323 210.451C922.373 210.28 922.625 210.28 922.686 210.451Z" fill="white"/>
<path opacity="0.47" d="M817.004 256.942L817.58 258.442C817.768 258.926 818.203 259.298 818.767 259.46L820.517 259.953C820.717 260.013 820.717 260.255 820.517 260.316L818.767 260.809C818.203 260.97 817.768 261.343 817.58 261.826L817.004 263.327C816.934 263.498 816.652 263.498 816.581 263.327L816.006 261.826C815.818 261.343 815.383 260.97 814.819 260.809L813.068 260.316C812.869 260.255 812.869 260.013 813.068 259.953L814.819 259.46C815.383 259.298 815.818 258.926 816.006 258.442L816.581 256.942C816.64 256.771 816.934 256.771 817.004 256.942Z" fill="white"/>
<path opacity="0.47" d="M778.728 66.4874L779.064 67.2326C779.167 67.4738 779.415 67.6601 779.737 67.7368L780.73 67.9889C780.847 68.0217 780.847 68.1423 780.73 68.1752L779.737 68.4273C779.415 68.504 779.167 68.6903 779.064 68.9314L778.728 69.6767C778.684 69.7643 778.524 69.7643 778.48 69.6767L778.144 68.9314C778.041 68.6903 777.793 68.504 777.472 68.4273L776.478 68.1752C776.361 68.1423 776.361 68.0217 776.478 67.9889L777.472 67.7368C777.793 67.6601 778.041 67.4738 778.144 67.2326L778.48 66.4874C778.524 66.3997 778.684 66.3997 778.728 66.4874Z" fill="white"/>
<path opacity="0.47" d="M1064.96 305.647L1065.54 307.145C1065.73 307.621 1066.17 307.998 1066.72 308.157L1068.47 308.657C1068.67 308.717 1068.67 308.961 1068.47 309.022L1066.72 309.522C1066.17 309.68 1065.73 310.058 1065.54 310.533L1064.96 312.032C1064.89 312.203 1064.6 312.203 1064.53 312.032L1063.95 310.533C1063.77 310.058 1063.32 309.68 1062.77 309.522L1061.02 309.022C1060.82 308.961 1060.82 308.717 1061.02 308.657L1062.77 308.157C1063.32 307.998 1063.77 307.621 1063.95 307.145L1064.53 305.647C1064.6 305.476 1064.89 305.476 1064.96 305.647Z" fill="white"/>
<path opacity="0.47" d="M576.218 60.9941L576.718 62.2432C576.876 62.6392 577.254 62.9541 577.73 63.0861L579.228 63.5024C579.399 63.5532 579.399 63.7563 579.228 63.8071L577.73 64.2235C577.254 64.3555 576.876 64.6703 576.718 65.0664L576.218 66.3155C576.157 66.4576 575.914 66.4576 575.853 66.3155L575.353 65.0664C575.195 64.6703 574.817 64.3555 574.342 64.2235L572.843 63.8071C572.672 63.7563 572.672 63.5532 572.843 63.5024L574.342 63.0861C574.817 62.9541 575.195 62.6392 575.353 62.2432L575.853 60.9941C575.914 60.8519 576.157 60.8519 576.218 60.9941Z" fill="white"/>
<path opacity="0.47" d="M146.207 115.255L146.79 116.754C146.975 117.229 147.416 117.607 147.97 117.765L149.719 118.265C149.918 118.326 149.918 118.569 149.719 118.63L147.97 119.13C147.416 119.288 146.975 119.666 146.79 120.141L146.207 121.64C146.136 121.811 145.852 121.811 145.781 121.64L145.198 120.141C145.013 119.666 144.572 119.288 144.018 119.13L142.269 118.63C142.07 118.569 142.07 118.326 142.269 118.265L144.018 117.765C144.572 117.607 145.013 117.229 145.198 116.754L145.781 115.255C145.852 115.084 146.136 115.084 146.207 115.255Z" fill="white"/>
<path opacity="0.47" d="M432.901 60.9941L433.484 62.2432C433.669 62.6392 434.11 62.9541 434.664 63.0861L436.413 63.5024C436.612 63.5532 436.612 63.7563 436.413 63.8071L434.664 64.2235C434.11 64.3555 433.669 64.6703 433.484 65.0664L432.901 66.3155C432.83 66.4576 432.546 66.4576 432.475 66.3155L431.892 65.0664C431.707 64.6703 431.266 64.3555 430.712 64.2235L428.963 63.8071C428.764 63.7563 428.764 63.5532 428.963 63.5024L430.712 63.0861C431.266 62.9541 431.707 62.6392 431.892 62.2432L432.475 60.9941C432.546 60.8519 432.83 60.8519 432.901 60.9941Z" fill="white"/>
<path opacity="0.47" d="M107.927 54.3738L108.26 55.8727C108.366 56.348 108.618 56.7258 108.935 56.8842L109.934 57.3838C110.048 57.4448 110.048 57.6885 109.934 57.7494L108.935 58.2491C108.618 58.4075 108.366 58.7853 108.26 59.2605L107.927 60.7595C107.887 60.9301 107.724 60.9301 107.684 60.7595L107.35 59.2605C107.245 58.7853 106.993 58.4075 106.676 58.2491L105.677 57.7494C105.563 57.6885 105.563 57.4448 105.677 57.3838L106.676 56.8842C106.993 56.7258 107.245 56.348 107.35 55.8727L107.684 54.3738C107.724 54.2032 107.887 54.2032 107.927 54.3738Z" fill="white"/>
<path d="M77.9187 149.196C106.04 149.196 128.837 127.886 128.837 101.598C128.837 75.3106 106.04 54.0002 77.9187 54.0002C49.7971 54.0002 27 75.3106 27 101.598C27 127.886 49.7971 149.196 77.9187 149.196Z" fill="url(#paint2_linear_21_54)"/>
<path opacity="0.56" d="M1133.82 415.464C1133.68 414.86 1133.45 414.29 1133.13 413.788C1133.09 413.742 1133.07 413.685 1133.03 413.64C1132.94 413.514 1132.86 413.389 1132.76 413.275C1132.73 413.252 1132.72 413.229 1132.71 413.206C1132.71 413.206 1132.7 413.206 1132.7 413.195C1132.15 412.568 1131.46 412.1 1130.69 411.872L1108.32 405.408L1102.16 399.673H1102.13C1100.84 390.894 1092.31 384.111 1081.97 384.111C1071.63 384.111 1063.1 390.894 1061.81 399.673H1061.7L1055.54 405.408L1055.46 405.431L1033.17 411.872C1032.16 412.169 1031.3 412.864 1030.72 413.799C1030.53 414.107 1030.36 414.426 1030.24 414.78C1030.22 414.803 1030.22 414.825 1030.21 414.837C1030.17 414.951 1030.12 415.076 1030.1 415.202C1030.09 415.247 1030.08 415.281 1030.06 415.327C1030.04 415.43 1030.01 415.544 1029.99 415.646C1029.98 415.692 1029.96 415.737 1029.96 415.794C1029.95 415.908 1029.93 416.011 1029.92 416.125C1029.92 416.171 1029.9 416.216 1029.9 416.262C1029.89 416.422 1029.88 416.57 1029.88 416.729C1029.88 417.927 1030.24 419.01 1030.84 419.876C1030.84 419.888 1030.85 419.888 1030.85 419.899C1030.94 420.024 1031.04 420.15 1031.14 420.264C1031.91 421.164 1033 421.723 1034.19 421.723H1055.86L1061.66 427.64H1067.61L1070.95 433.922H1092.84L1096.18 427.64H1102.13L1107.94 421.723H1116.71H1129.6C1129.74 421.723 1129.87 421.712 1130 421.7C1130.03 421.7 1130.07 421.689 1130.12 421.689C1130.22 421.677 1130.3 421.655 1130.4 421.643C1130.44 421.632 1130.49 421.632 1130.53 421.62C1130.64 421.598 1130.74 421.563 1130.85 421.529C1130.86 421.518 1130.88 421.518 1130.9 421.506C1131.02 421.461 1131.13 421.415 1131.24 421.358C1131.28 421.335 1131.33 421.313 1131.36 421.29C1131.44 421.256 1131.51 421.21 1131.57 421.176C1131.62 421.153 1131.66 421.119 1131.71 421.096C1131.78 421.05 1131.84 421.005 1131.91 420.959C1131.96 420.925 1132.02 420.879 1132.07 420.834C1132.14 420.777 1132.21 420.708 1132.29 420.64C1132.34 420.594 1132.39 420.549 1132.44 420.492C1132.47 420.446 1132.52 420.401 1132.56 420.366C1132.61 420.309 1132.66 420.252 1132.71 420.195C1132.74 420.161 1132.77 420.116 1132.81 420.07C1132.98 419.853 1133.14 419.614 1133.27 419.352C1133.29 419.317 1133.31 419.283 1133.32 419.249C1133.36 419.169 1133.41 419.078 1133.45 418.998C1133.46 418.964 1133.47 418.93 1133.48 418.896C1133.76 418.246 1133.92 417.516 1133.92 416.741C1133.95 416.285 1133.92 415.874 1133.82 415.464Z" fill="#292933"/>
<path opacity="0.56" d="M1006.51 251.707C1006.44 251.354 1006.31 251.025 1006.14 250.742C1006.13 250.718 1006.11 250.683 1006.1 250.66C1006.05 250.589 1006 250.518 1005.95 250.448C1005.94 250.436 1005.93 250.424 1005.93 250.401C1005.93 250.401 1005.93 250.401 1005.92 250.401C1005.62 250.036 1005.25 249.765 1004.83 249.636L992.686 245.881L989.346 242.561H989.334C988.63 237.488 984.001 233.568 978.406 233.568C972.811 233.568 968.182 237.488 967.478 242.561H967.418L964.078 245.881L964.042 245.892L951.957 249.612C951.408 249.789 950.943 250.189 950.621 250.718C950.513 250.895 950.43 251.083 950.358 251.283C950.358 251.295 950.346 251.307 950.346 251.319C950.322 251.389 950.298 251.46 950.287 251.531C950.275 251.554 950.275 251.578 950.275 251.601C950.263 251.66 950.251 251.719 950.239 251.79C950.239 251.813 950.227 251.849 950.227 251.872C950.215 251.931 950.215 252.002 950.203 252.06C950.203 252.084 950.191 252.107 950.191 252.143C950.179 252.237 950.179 252.319 950.179 252.414C950.179 253.108 950.37 253.732 950.704 254.226C950.704 254.226 950.704 254.238 950.716 254.238C950.764 254.309 950.812 254.379 950.871 254.45C951.301 254.968 951.885 255.297 952.529 255.297H964.281L967.43 258.711H970.651L972.465 262.348H984.335L986.149 258.711H989.37L992.519 255.297H997.279H1004.27C1004.34 255.297 1004.41 255.297 1004.49 255.286C1004.51 255.286 1004.53 255.274 1004.54 255.274C1004.59 255.262 1004.65 255.262 1004.7 255.25C1004.72 255.25 1004.75 255.239 1004.77 255.239C1004.83 255.227 1004.89 255.203 1004.95 255.18C1004.96 255.18 1004.97 255.168 1004.97 255.168C1005.03 255.144 1005.11 255.109 1005.17 255.086C1005.19 255.074 1005.21 255.062 1005.24 255.05C1005.27 255.027 1005.32 255.003 1005.36 254.98C1005.38 254.968 1005.4 254.944 1005.43 254.933C1005.46 254.909 1005.5 254.874 1005.53 254.85C1005.56 254.827 1005.59 254.803 1005.62 254.779C1005.67 254.744 1005.7 254.709 1005.74 254.662C1005.76 254.638 1005.79 254.603 1005.82 254.579C1005.85 254.556 1005.87 254.532 1005.89 254.509C1005.92 254.473 1005.95 254.45 1005.98 254.415C1005.99 254.391 1006.01 254.368 1006.02 254.344C1006.12 254.214 1006.2 254.073 1006.27 253.932C1006.29 253.908 1006.3 253.897 1006.31 253.873C1006.33 253.826 1006.36 253.779 1006.37 253.732C1006.38 253.708 1006.38 253.697 1006.39 253.673C1006.54 253.296 1006.63 252.873 1006.63 252.425C1006.58 252.178 1006.56 251.943 1006.51 251.707Z" fill="#16392B"/>
<path opacity="0.56" d="M778.522 330.433C778.423 330.018 778.262 329.625 778.04 329.278C778.015 329.244 777.991 329.21 777.978 329.177C777.916 329.087 777.855 329.008 777.781 328.93C777.768 328.919 777.756 328.896 777.744 328.885H777.731C777.348 328.448 776.867 328.133 776.323 327.976L760.614 323.523L756.292 319.574H756.279C755.366 313.517 749.376 308.839 742.114 308.839C734.852 308.839 728.863 313.517 727.949 319.574H727.875L723.552 323.523L723.503 323.534L707.843 327.976C707.127 328.178 706.534 328.661 706.114 329.3C705.978 329.513 705.867 329.738 705.781 329.973C705.781 329.984 705.768 330.007 705.768 330.018C705.744 330.097 705.707 330.186 705.694 330.265C705.682 330.287 705.682 330.321 705.67 330.343C705.645 330.422 705.633 330.489 705.62 330.568C705.608 330.601 705.608 330.635 705.596 330.669C705.583 330.747 705.571 330.814 705.571 330.893C705.571 330.927 705.558 330.96 705.558 330.983C705.546 331.095 705.546 331.196 705.546 331.308C705.546 332.127 705.805 332.879 706.225 333.473C706.225 333.473 706.238 333.484 706.238 333.495C706.299 333.585 706.374 333.664 706.435 333.742C706.979 334.359 707.744 334.752 708.584 334.752H723.799L727.875 338.824H732.049L734.395 343.154H749.771L752.118 338.824H756.292L760.367 334.752H766.53H775.582C775.681 334.752 775.768 334.741 775.866 334.741C775.891 334.741 775.928 334.729 775.953 334.729C776.015 334.718 776.089 334.707 776.15 334.696C776.175 334.685 776.212 334.685 776.237 334.673C776.311 334.651 776.385 334.628 776.459 334.606C776.472 334.606 776.484 334.595 776.496 334.595C776.583 334.561 776.657 334.528 776.743 334.494C776.768 334.483 776.805 334.46 776.83 334.449C776.879 334.427 776.928 334.393 776.978 334.37C777.015 334.348 777.04 334.337 777.077 334.314C777.126 334.281 777.175 334.247 777.213 334.213C777.25 334.191 777.287 334.157 777.324 334.124C777.373 334.079 777.435 334.034 777.484 333.989C777.521 333.955 777.558 333.922 777.583 333.888C777.608 333.854 777.645 333.832 777.669 333.798C777.706 333.765 777.744 333.72 777.768 333.686C777.793 333.664 777.818 333.63 777.83 333.608C777.953 333.451 778.065 333.294 778.151 333.114C778.163 333.092 778.176 333.069 778.188 333.047C778.213 332.991 778.25 332.935 778.275 332.867C778.287 332.845 778.299 332.822 778.299 332.8C778.497 332.351 778.596 331.847 778.596 331.308C778.62 330.994 778.583 330.702 778.522 330.433ZM723.54 323.501H723.565H723.54Z" fill="#174331"/>
<path d="M1015.87 750.741H812.388L890.391 399.258H937.862L1015.87 750.741Z" fill="url(#paint3_linear_21_54)"/>
<path d="M978.056 750.741H850.375L899.329 399.257H929.101L978.056 750.741Z" fill="url(#paint4_linear_21_54)"/>
<path d="M980.294 326.222H847.809L863.289 311.774H964.814L980.294 326.222Z" fill="#E5E5E5"/>
<path d="M863.289 311.774L847.809 326.222H868.743L884.224 311.774H863.289Z" fill="#F4F4F4"/>
<path d="M980.295 326.222L964.814 311.774H945.461H863.29L857.848 316.856H950.903L960.941 326.222H980.295Z" fill="#C4C4C4"/>
<path d="M847.809 367.213L863.289 383.013H964.814L980.294 367.213H847.809Z" fill="#E5E5E5"/>
<path d="M877.324 367.213L888.012 383.013H929.134L940.19 367.213H877.324Z" fill="#C4C4C4"/>
<path d="M847.809 367.213L863.289 383.013H874.688L859.208 367.213H847.809Z" fill="#F4F4F4"/>
<path d="M953.451 367.213L937.97 383.013H964.813L980.294 367.213H953.451Z" fill="#C4C4C4"/>
<path d="M878.216 383.013H949.883L941.511 398.825H886.588L878.216 383.013Z" fill="#42CA90"/>
<path opacity="0.47" d="M949.883 383.013H935.91H878.216L880.153 386.685H933.973L927.538 398.825H941.511L947.946 386.685L949.883 383.013Z" fill="#3CBA84"/>
<path d="M1044.59 354.641C1044.59 361.586 1039.73 367.213 1033.73 367.213H794.355C791.352 367.213 788.643 365.803 786.682 363.53C784.709 361.256 783.495 358.108 783.495 354.641C783.495 348.866 786.89 343.842 791.72 342.432L847.832 326.177L847.795 326.234H980.281L980.244 326.177L1036.36 342.432C1038.77 343.137 1040.83 344.751 1042.29 346.899C1043.75 349.059 1044.59 351.753 1044.59 354.641Z" fill="#42CA90"/>
<path d="M980.439 326.234L980.256 326.177L980.292 326.234H980.439Z" fill="#228AC5"/>
<path d="M801.684 363.53C799.711 361.256 798.498 358.108 798.498 354.641C798.498 348.866 801.893 343.842 806.722 342.432L862.651 326.234H847.807L847.844 326.177L791.732 342.432C786.902 343.842 783.507 348.866 783.507 354.641C783.507 358.108 784.721 361.256 786.694 363.53C788.655 365.803 791.376 367.213 794.367 367.213H809.357C806.354 367.213 803.633 365.803 801.684 363.53Z" fill="#3CBA84"/>
<path d="M1042.3 346.9C1040.85 344.751 1038.79 343.137 1036.37 342.433L980.254 326.177L980.291 326.234H949.06L1004.99 342.433C1007.4 343.137 1009.46 344.751 1010.92 346.9C1012.37 349.048 1013.23 351.754 1013.23 354.641C1013.23 361.587 1008.36 367.213 1002.37 367.213H1033.74C1039.74 367.213 1044.6 361.587 1044.6 354.641C1044.59 351.754 1043.75 349.06 1042.3 346.9Z" fill="#3CBA84"/>
<path d="M1042.55 347.286H1011.17C1011.08 347.161 1011.01 347.025 1010.92 346.911C1010.67 346.513 1010.37 346.138 1010.07 345.774H1041.42C1041.43 345.786 1041.44 345.786 1041.46 345.797C1041.46 345.797 1041.46 345.809 1041.47 345.809C1041.75 346.161 1042.03 346.525 1042.3 346.911C1042.38 347.025 1042.46 347.15 1042.55 347.286Z" fill="#560B68"/>
<path d="M847.807 326.235L847.844 326.178L847.661 326.235H847.807Z" fill="#560B68"/>
<path d="M1042.3 346.9C1042.03 346.502 1041.74 346.127 1041.42 345.763H1009.06C1009.37 346.127 1009.68 346.502 1009.95 346.9C1011.39 349.048 1012.25 351.754 1012.25 354.641C1012.25 361.587 1007.38 367.213 1001.39 367.213H1033.74C1039.73 367.213 1044.6 361.587 1044.6 354.641C1044.6 351.754 1043.75 349.06 1042.3 346.9Z" fill="#750E8E"/>
<path opacity="0.69" d="M878.216 383.013L886.588 398.825H892.471L884.099 383.013H878.216Z" fill="url(#paint5_linear_21_54)"/>
<path d="M1041.42 345.763H786.682C784.709 348.059 783.507 351.22 783.507 354.641C783.507 358.108 784.721 361.257 786.694 363.53C788.655 365.804 791.376 367.213 794.367 367.213H1033.75C1039.74 367.213 1044.61 361.587 1044.61 354.641C1044.61 351.754 1043.75 349.048 1042.3 346.9C1042.03 346.502 1041.72 346.127 1041.42 345.763Z" fill="#3CAF7E"/>
<path d="M801.476 363.53C799.503 361.257 798.289 358.108 798.289 354.641C798.289 351.22 799.49 348.059 801.464 345.763H786.67C784.696 348.059 783.495 351.22 783.495 354.641C783.495 358.108 784.709 361.257 786.682 363.53C788.643 365.804 791.364 367.213 794.355 367.213H809.161C806.158 367.213 803.437 365.804 801.476 363.53Z" fill="#31986C"/>
<path d="M1042.3 346.9C1042.03 346.502 1041.74 346.127 1041.42 345.763H1010.29C1010.59 346.127 1010.9 346.502 1011.17 346.9C1012.61 349.048 1013.47 351.754 1013.47 354.641C1013.47 361.587 1008.61 367.213 1002.61 367.213H1033.75C1039.74 367.213 1044.6 361.587 1044.6 354.641C1044.59 351.754 1043.75 349.06 1042.3 346.9Z" fill="#31986C"/>
<path d="M784.319 359.404C784.87 360.961 785.679 362.359 786.684 363.53C788.645 365.804 791.366 367.213 794.357 367.213H1033.74C1038.27 367.213 1042.16 363.985 1043.79 359.404H784.319Z" fill="#319667"/>
<path d="M964.948 311.763C962.46 288.96 940.667 271.125 914.155 271.125C887.643 271.125 865.838 288.96 863.362 311.763H964.948Z" fill="#42CA90"/>
<path d="M914.153 271.137C911.224 271.137 908.344 271.364 905.549 271.785C928.041 275.149 945.531 291.484 947.738 311.764H964.959C962.47 288.961 940.678 271.137 914.153 271.137Z" fill="#3CBA84"/>
<path opacity="0.79" d="M1042.55 347.286H785.566C785.897 346.752 786.277 346.24 786.681 345.774H1041.42C1041.43 345.785 1041.44 345.785 1041.45 345.797C1041.45 345.797 1041.45 345.808 1041.47 345.808C1041.75 346.16 1042.03 346.524 1042.3 346.911C1042.37 347.024 1042.46 347.149 1042.55 347.286Z" fill="white"/>
<path d="M1027.98 353.743C1027.98 351.856 1026.32 350.321 1024.29 350.321C1022.25 350.321 1020.6 351.856 1020.6 353.743C1020.6 355.63 1022.25 357.164 1024.29 357.164C1026.32 357.164 1027.98 355.641 1027.98 353.743Z" fill="#FCC529"/>
<path d="M996.904 353.743C996.904 351.856 995.25 350.321 993.215 350.321C991.18 350.321 989.526 351.856 989.526 353.743C989.526 355.63 991.18 357.164 993.215 357.164C995.262 357.164 996.904 355.641 996.904 353.743Z" fill="#FCC529"/>
<path d="M965.848 353.743C965.848 351.856 964.193 350.321 962.159 350.321C960.124 350.321 958.469 351.856 958.469 353.743C958.469 355.63 960.124 357.164 962.159 357.164C964.193 357.164 965.848 355.641 965.848 353.743Z" fill="#FCC529"/>
<path d="M934.785 353.743C934.785 351.856 933.131 350.321 931.096 350.321C929.061 350.321 927.407 351.856 927.407 353.743C927.407 355.63 929.061 357.164 931.096 357.164C933.131 357.164 934.785 355.641 934.785 353.743Z" fill="#FCC529"/>
<path d="M903.713 353.743C903.713 351.856 902.058 350.321 900.023 350.321C897.989 350.321 896.334 351.856 896.334 353.743C896.334 355.63 897.989 357.164 900.023 357.164C902.07 357.164 903.713 355.641 903.713 353.743Z" fill="#FCC529"/>
<path d="M872.654 353.743C872.654 351.856 870.999 350.321 868.965 350.321C866.93 350.321 865.275 351.856 865.275 353.743C865.275 355.63 866.93 357.164 868.965 357.164C870.999 357.164 872.654 355.641 872.654 353.743Z" fill="#FCC529"/>
<path d="M841.594 353.743C841.594 351.856 839.939 350.321 837.904 350.321C835.87 350.321 834.215 351.856 834.215 353.743C834.215 355.63 835.87 357.164 837.904 357.164C839.939 357.164 841.594 355.641 841.594 353.743Z" fill="#FCC529"/>
<path d="M810.524 353.742C810.524 351.855 808.87 350.321 806.835 350.321C804.8 350.321 803.146 351.855 803.146 353.742C803.146 355.629 804.8 357.164 806.835 357.164C808.87 357.164 810.524 355.641 810.524 353.742Z" fill="#FCC529"/>
<path opacity="0.69" d="M921.964 281.526C919.072 274.694 907.17 272.626 895.379 276.911C883.588 281.197 876.368 290.211 879.249 297.043C882.142 303.874 894.043 305.943 905.834 301.658C917.625 297.384 924.845 288.369 921.964 281.526Z" fill="url(#paint6_linear_21_54)"/>
<path opacity="0.31" d="M904.472 284.743C903.124 281.537 897.547 280.571 892.019 282.583C886.491 284.595 883.108 288.812 884.457 292.018C885.805 295.224 891.382 296.19 896.91 294.178C902.438 292.166 905.833 287.948 904.472 284.743Z" fill="white"/>
<path opacity="0.31" d="M915.43 288.46C914.878 287.141 912.586 286.755 910.319 287.573C908.051 288.392 906.666 290.131 907.217 291.438C907.769 292.757 910.061 293.143 912.329 292.325C914.596 291.506 915.981 289.767 915.43 288.46Z" fill="white"/>
<path d="M943.914 532.585L884.664 531.823L907.547 399.257H922.672L943.914 532.585Z" fill="url(#paint7_linear_21_54)"/>
<path fill-rule="evenodd" clip-rule="evenodd" d="M948.699 724.832C948.699 724.832 954.092 726.537 959.534 719.444C964.976 712.351 968.567 703.473 968.567 703.473C968.567 703.473 967.06 707.565 960.073 708.02L948.699 724.832Z" fill="url(#paint8_linear_21_54)"/>
<path fill-rule="evenodd" clip-rule="evenodd" d="M952.915 704.269L971.668 678.158C971.668 678.158 980.849 689.423 959.534 719.444C959.534 719.444 967.942 709.805 952.915 704.269Z" fill="url(#paint9_linear_21_54)"/>
<path fill-rule="evenodd" clip-rule="evenodd" d="M932.044 476.861C938.438 479.816 939.695 483.749 939.695 483.749L923.673 477.85C923.673 477.85 924.82 475.292 919.683 472.462C919.683 472.462 929.115 475.508 932.044 476.861Z" fill="url(#paint10_linear_21_54)"/>
<path fill-rule="evenodd" clip-rule="evenodd" d="M899.098 468.949L912.862 477.633C912.862 477.633 918.329 471.086 932.044 476.86C932.044 476.86 918.219 470.165 899.098 468.949Z" fill="url(#paint11_linear_21_54)"/>
<path d="M909.443 561.912L908.552 566.686L877.558 564.197L863.977 589.739L858.681 588.068L874.153 558.502L909.443 561.912Z" fill="#E7E5E5"/>
<path d="M909.43 561.913L879.095 559.412C879.095 559.412 876.093 558.991 874.995 559.775L875.983 561.549C875.983 561.549 907.661 563.549 909.101 563.743L909.43 561.913Z" fill="#D8D6D6"/>
<path d="M858.608 587.943L872.372 562.639C872.372 562.639 873.568 560.048 874.874 559.593L875.972 561.309C875.972 561.309 861.036 587.409 860.45 588.648L858.608 587.943Z" fill="#D8D6D6"/>
<path d="M857.536 590.182L873.107 561.57C873.107 561.57 874.498 559.035 877.524 559.285V559.274V559.285L911.825 562.104L911.996 560.274L879.257 557.58C879.257 557.58 876.06 555.614 873.302 557.046C870.532 558.478 870.642 562.036 870.642 562.036L855.779 589.352L857.536 590.182Z" fill="#FFC23A"/>
<path d="M861.147 588.853C860.976 588.944 870.079 588.421 870.079 588.421C886.675 579.293 875.827 561.332 875.827 561.332C875.827 561.332 874.667 581.725 861.147 588.853Z" fill="#D8D6D6"/>
<path d="M872.24 592.433C872.118 592.57 880.33 589.069 880.33 589.069C891.788 574.746 875.828 561.344 875.828 561.344C875.828 561.344 882.136 581.157 872.24 592.433Z" fill="#C3C1C1"/>
<path d="M884.659 559.877L885.257 558.081L879.253 557.581C879.253 557.581 876.324 555.501 873.298 557.047C873.298 557.047 870.614 558.627 870.638 562.037L867.844 567.175L869.674 567.63L873.103 561.571C873.103 561.571 874.104 559.366 877.52 559.275L884.659 559.877Z" fill="#F9A431"/>
<defs>
<linearGradient id="paint0_linear_21_54" x1="0" y1="0" x2="1958.02" y2="1102.31" gradientUnits="userSpaceOnUse">
<stop stop-color="#25262D"/>
<stop offset="0.109375" stop-color="#25262D"/>
<stop offset="0.369792" stop-color="#21282B"/>
<stop offset="0.53125" stop-color="#1A4B36"/>
<stop offset="0.604167" stop-color="#1E583F"/>
<stop offset="0.666667" stop-color="#216145"/>
<stop offset="0.729167" stop-color="#246A4C"/>
<stop offset="0.84375" stop-color="#319369"/>
<stop offset="0.895833" stop-color="#37A576"/>
<stop offset="1" stop-color="#42CA90"/>
</linearGradient>
<linearGradient id="paint1_linear_21_54" x1="1065.86" y1="233.43" x2="1065.86" y2="231.385" gradientUnits="userSpaceOnUse">
<stop stop-color="#E81FE8"/>
<stop offset="0.5533" stop-color="#9A2DB4"/>
<stop offset="1" stop-color="#381244"/>
</linearGradient>
<linearGradient id="paint2_linear_21_54" x1="121.917" y1="142.73" x2="45.4793" y2="60.9593" gradientUnits="userSpaceOnUse">
<stop stop-color="#292933" stop-opacity="0.43"/>
<stop offset="1" stop-color="#42CA90" stop-opacity="0.37"/>
</linearGradient>
<linearGradient id="paint3_linear_21_54" x1="914.125" y1="723.141" x2="914.125" y2="348.241" gradientUnits="userSpaceOnUse">
<stop stop-color="white" stop-opacity="0"/>
<stop offset="1" stop-color="white"/>
</linearGradient>
<linearGradient id="paint4_linear_21_54" x1="914.215" y1="723.141" x2="914.215" y2="348.24" gradientUnits="userSpaceOnUse">
<stop stop-color="white" stop-opacity="0"/>
<stop offset="1" stop-color="white"/>
</linearGradient>
<linearGradient id="paint5_linear_21_54" x1="878.215" y1="390.922" x2="892.472" y2="390.922" gradientUnits="userSpaceOnUse">
<stop stop-color="white" stop-opacity="0"/>
<stop offset="1" stop-color="white"/>
</linearGradient>
<linearGradient id="paint6_linear_21_54" x1="911.158" y1="296.542" x2="875.587" y2="268.112" gradientUnits="userSpaceOnUse">
<stop stop-color="white" stop-opacity="0"/>
<stop offset="1" stop-color="white"/>
</linearGradient>
<linearGradient id="paint7_linear_21_54" x1="914.291" y1="522.11" x2="914.291" y2="379.909" gradientUnits="userSpaceOnUse">
<stop stop-color="white" stop-opacity="0"/>
<stop offset="1" stop-color="white"/>
</linearGradient>
<linearGradient id="paint8_linear_21_54" x1="962.099" y1="717.126" x2="956.533" y2="711.564" gradientUnits="userSpaceOnUse">
<stop offset="0.0335" stop-color="#C7C7C7"/>
<stop offset="0.9829" stop-color="#DADADA"/>
</linearGradient>
<linearGradient id="paint9_linear_21_54" x1="973.44" y1="705.527" x2="958.865" y2="690.964" gradientUnits="userSpaceOnUse">
<stop offset="0.0335" stop-color="#FFDECE"/>
<stop offset="0.9829" stop-color="#F0CECC"/>
</linearGradient>
<linearGradient id="paint10_linear_21_54" x1="930.612" y1="476.232" x2="929.008" y2="480.067" gradientUnits="userSpaceOnUse">
<stop offset="0.0335" stop-color="#E3DBBE"/>
<stop offset="0.9829" stop-color="#F3E1D1"/>
</linearGradient>
<linearGradient id="paint11_linear_21_54" x1="916.791" y1="470.42" x2="913.645" y2="477.941" gradientUnits="userSpaceOnUse">
<stop offset="0.0335" stop-color="#FFDECE"/>
<stop offset="0.9829" stop-color="#F0CECC"/>
</linearGradient>
</defs>
</svg>
